HIERARCHY
ROOT Hips
{
  OFFSET 363.916 89.4436 202.859
  CHANNELS 6 Xposition Yposition Zposition Zrotation Xrotation Yrotation
  JOINT RightUpLeg
  {
    OFFSET -9.22681 -1.41939 0.059526
    CHANNELS 3 Zrotation Xrotation Yrotation
    JOINT RightLeg
    {
      OFFSET 0.076897 -41.8891 0.179098
      CHANNELS 3 Zrotation Xrotation Yrotation
      JOINT RightFoot
      {
        OFFSET -0.0130714 -43.0092 0.527065
        CHANNELS 3 Zrotation Xrotation Yrotation
        End Site
        {
          OFFSET 0 -7.69 17.5
        }
      }
    }
  }
  JOINT LeftUpLeg
  {
    OFFSET 9.19333 -1.7604 -0.077889
    CHANNELS 3 Zrotation Xrotation Yrotation
    JOINT LeftLeg
    {
      OFFSET -0.0291634 -41.859 -0.15197
      CHANNELS 3 Zrotation Xrotation Yrotation
      JOINT LeftFoot
      {
        OFFSET 0.141288 -40.5593 0.458407
        CHANNELS 3 Zrotation Xrotation Yrotation
        End Site
        {
          OFFSET 0 -7.69 17.5
        }
      }
    }
  }
  JOINT Spine
  {
    OFFSET 0.215607 14.2961 0.04713
    CHANNELS 3 Zrotation Xrotation Yrotation
    JOINT Spine1
    {
      OFFSET 0.127345 9.70675 0.00151561
      CHANNELS 3 Zrotation Xrotation Yrotation
      JOINT Spine2
      {
        OFFSET 0.0493166 10.1169 -0.00299987
        CHANNELS 3 Zrotation Xrotation Yrotation
        JOINT Spine3
        {
          OFFSET 0.0599611 9.70888 0.0197622
          CHANNELS 3 Zrotation Xrotation Yrotation
          JOINT Neck
          {
            OFFSET 0.305156 10.372 0.0704915
            CHANNELS 3 Zrotation Xrotation Yrotation
            JOINT Head
            {
              OFFSET 0.288394 9.47974 0.0406202
              CHANNELS 3 Zrotation Xrotation Yrotation
              End Site
              {
                OFFSET 0 15.95 0
              }
            }
          }
          JOINT RightShoulder
          {
            OFFSET -3.14873 6.92098 0.0285763
            CHANNELS 3 Zrotation Xrotation Yrotation
            JOINT RightArm
            {
              OFFSET -12.7049 -0.00288304 0.0369593
              CHANNELS 3 Zrotation Xrotation Yrotation
              JOINT RightForeArm
              {
                OFFSET -26.4954 -0.160471 0.0134548
                CHANNELS 3 Zrotation Xrotation Yrotation
                JOINT RightHand
                {
                  OFFSET -26.0026 -0.0211725 -0.0218708
                  CHANNELS 3 Zrotation Xrotation Yrotation
                  JOINT RightHandThumb1
                  {
                    OFFSET -2.48905 0.190105 3.12053
                    CHANNELS 3 Zrotation Xrotation Yrotation
                    JOINT RightHandThumb2
                    {
                      OFFSET -3.68274 0 0
                      CHANNELS 3 Zrotation Xrotation Yrotation
                      JOINT RightHandThumb3
                      {
                        OFFSET -2.55832 0 0
                        CHANNELS 3 Zrotation Xrotation Yrotation
                        End Site
                        {
                          OFFSET -2.194 0 0
                        }
                      }
                    }
                  }
                  JOINT RightInHandIndex
                  {
                    OFFSET -3.22368 0.508421 1.97842
                    CHANNELS 3 Zrotation Xrotation Yrotation
                    JOINT RightHandIndex1
                    {
                      OFFSET -5.21684 -0.091368 0.999158
                      CHANNELS 3 Zrotation Xrotation Yrotation
                      JOINT RightHandIndex2
                      {
                        OFFSET -3.61937 0 0
                        CHANNELS 3 Zrotation Xrotation Yrotation
                        JOINT RightHandIndex3
                        {
                          OFFSET -2.0521 0 0
                          CHANNELS 3 Zrotation Xrotation Yrotation
                          End Site
                          {
                            OFFSET -1.805 0 0
                          }
                        }
                      }
                    }
                  }
                  JOINT RightInHandMiddle
                  {
                    OFFSET -3.38211 0.517263 0.756737
                    CHANNELS 3 Zrotation Xrotation Yrotation
                    JOINT RightHandMiddle1
                    {
                      OFFSET -5.17411 -0.084 0.313895
                      CHANNELS 3 Zrotation Xrotation Yrotation
                      JOINT RightHandMiddle2
                      {
                        OFFSET -3.94947 0 0
                        CHANNELS 3 Zrotation Xrotation Yrotation
                        JOINT RightHandMiddle3
                        {
                          OFFSET -2.47579 0 0
                          CHANNELS 3 Zrotation Xrotation Yrotation
                          End Site
                          {
                            OFFSET -1.975 0 0
                          }
                        }
                      }
                    }
                  }
                  JOINT RightInHandRing
                  {
                    OFFSET -3.36516 0.537895 -0.128947
                    CHANNELS 3 Zrotation Xrotation Yrotation
                    JOINT RightHandRing1
                    {
                      OFFSET -4.63474 -0.022105 -0.478947
                      CHANNELS 3 Zrotation Xrotation Yrotation
                      JOINT RightHandRing2
                      {
                        OFFSET -3.44238 0 0
                        CHANNELS 3 Zrotation Xrotation Yrotation
                        JOINT RightHandRing3
                        {
                          OFFSET -2.3881 0 0
                          CHANNELS 3 Zrotation Xrotation Yrotation
                          End Site
                          {
                            OFFSET -1.857 0 0
                          }
                        }
                      }
                    }
                  }
                  JOINT RightInHandPinky
                  {
                    OFFSET -3.16105 0.469368 -1.20179
                    CHANNELS 3 Zrotation Xrotation Yrotation
                    JOINT RightHandPinky1
                    {
                      OFFSET -4.14105 -0.022105 -1.09053
                      CHANNELS 3 Zrotation Xrotation Yrotation
                      JOINT RightHandPinky2
                      {
                        OFFSET -2.75653 0 0
                        CHANNELS 3 Zrotation Xrotation Yrotation
                        JOINT RightHandPinky3
                        {
                          OFFSET -1.74189 0 0
                          CHANNELS 3 Zrotation Xrotation Yrotation
                          End Site
                          {
                            OFFSET -1.645 0 0
                          }
                        }
                      }
                    }
                  }
                }
              }
            }
          }
          JOINT LeftShoulder
          {
            OFFSET 3.26342 6.92519 -0.0174379
            CHANNELS 3 Zrotation Xrotation Yrotation
            JOINT LeftArm
            {
              OFFSET 12.8742 -0.0269705 -0.0666419
              CHANNELS 3 Zrotation Xrotation Yrotation
              JOINT LeftForeArm
              {
                OFFSET 26.5114 0.000826062 -0.052783
                CHANNELS 3 Zrotation Xrotation Yrotation
                JOINT LeftHand
                {
                  OFFSET 25.9941 -0.0689373 0.00603348
                  CHANNELS 3 Zrotation Xrotation Yrotation
                  JOINT LeftHandThumb1
                  {
                    OFFSET 2.48905 0.190105 3.12053
                    CHANNELS 3 Zrotation Xrotation Yrotation
                    JOINT LeftHandThumb2
                    {
                      OFFSET 3.68274 0 0
                      CHANNELS 3 Zrotation Xrotation Yrotation
                      JOINT LeftHandThumb3
                      {
                        OFFSET 2.55832 0 0
                        CHANNELS 3 Zrotation Xrotation Yrotation
                        End Site
                        {
                          OFFSET 2.194 0 0
                        }
                      }
                    }
                  }
                  JOINT LeftInHandIndex
                  {
                    OFFSET 3.22368 0.508421 1.97842
                    CHANNELS 3 Zrotation Xrotation Yrotation
                    JOINT LeftHandIndex1
                    {
                      OFFSET 5.21684 -0.091368 0.999158
                      CHANNELS 3 Zrotation Xrotation Yrotation
                      JOINT LeftHandIndex2
                      {
                        OFFSET 3.61937 0 0
                        CHANNELS 3 Zrotation Xrotation Yrotation
                        JOINT LeftHandIndex3
                        {
                          OFFSET 2.0521 0 0
                          CHANNELS 3 Zrotation Xrotation Yrotation
                          End Site
                          {
                            OFFSET 1.805 0 0
                          }
                        }
                      }
                    }
                  }
                  JOINT LeftInHandMiddle
                  {
                    OFFSET 3.38211 0.517263 0.756737
                    CHANNELS 3 Zrotation Xrotation Yrotation
                    JOINT LeftHandMiddle1
                    {
                      OFFSET 5.17411 -0.084 0.313895
                      CHANNELS 3 Zrotation Xrotation Yrotation
                      JOINT LeftHandMiddle2
                      {
                        OFFSET 3.94947 0 0
                        CHANNELS 3 Zrotation Xrotation Yrotation
                        JOINT LeftHandMiddle3
                        {
                          OFFSET 2.47579 0 0
                          CHANNELS 3 Zrotation Xrotation Yrotation
                          End Site
                          {
                            OFFSET 1.975 0 0
                          }
                        }
                      }
                    }
                  }
                  JOINT LeftInHandRing
                  {
                    OFFSET 3.36516 0.537895 -0.128947
                    CHANNELS 3 Zrotation Xrotation Yrotation
                    JOINT LeftHandRing1
                    {
                      OFFSET 4.63474 -0.022105 -0.478947
                      CHANNELS 3 Zrotation Xrotation Yrotation
                      JOINT LeftHandRing2
                      {
                        OFFSET 3.44238 0 0
                        CHANNELS 3 Zrotation Xrotation Yrotation
                        JOINT LeftHandRing3
                        {
                          OFFSET 2.3881 0 0
                          CHANNELS 3 Zrotation Xrotation Yrotation
                          End Site
                          {
                            OFFSET 1.857 0 0
                          }
                        }
                      }
                    }
                  }
                  JOINT LeftInHandPinky
                  {
                    OFFSET 3.16105 0.469368 -1.20179
                    CHANNELS 3 Zrotation Xrotation Yrotation
                    JOINT LeftHandPinky1
                    {
                      OFFSET 4.14105 -0.022105 -1.09053
                      CHANNELS 3 Zrotation Xrotation Yrotation
                      JOINT LeftHandPinky2
                      {
                        OFFSET 2.75653 0 0
                        CHANNELS 3 Zrotation Xrotation Yrotation
                        JOINT LeftHandPinky3
                        {
                          OFFSET 1.74189 0 0
                          CHANNELS 3 Zrotation Xrotation Yrotation
                          End Site
                          {
                            OFFSET 1.645 0 0
                          }
                        }
                      }
                    }
                  }
                }
              }
            }
          }
        }
      }
    }
  }
}
MOTION
Frames: 2
Frame Time: 0.00833333
3.513916000000000167e+03 8.944360000000001776e+01 2.028590000000000089e+02 2.455030000000000001e+01 1.056269999999999953e+01 -7.515689999999999316e+01 -8.947100000000000719e+00 -5.145810000000000173e+01 -5.323479999999999990e+00 -3.572779999999999845e+00 2.230179999999999652e+01 -1.489359999999999928e+01 1.024309999999999832e+01 6.192370000000000374e+00 2.952619999999999933e+01 1.343350000000000222e+01 -4.225899999999999324e+01 5.371349999999999181e-01 -1.491979999999999862e+00 3.493269999999999698e+01 6.186250000000001137e+00 -8.111039999999999139e+00 -1.652640000000000242e+01 -1.252229999999999954e+01 -5.547869999999999635e+00 1.549300000000000033e+01 1.173279999999999923e+01 -1.085660000000000069e+00 3.830399999999999139e+00 2.779289999999999594e+00 -1.825889999999999791e+00 6.060859999999999914e+00 4.592060000000000031e+00 -3.921459999999999391e-01 -3.714689999999999381e-01 -1.361800000000000233e-01 -3.926229999999999443e-01 -3.723460000000000658e-01 -1.342259999999999565e-01 -7.242329999999999934e+00 -6.921140000000000292e+00 -2.326880000000000948e+00 1.258180000000000076e+00 -1.354279999999999795e+01 1.952130000000000010e+01 8.529349999999999454e+01 -3.805429999999994095e-01 4.895039999999999480e+01 1.217190000000000083e+01 -5.090730000000000643e+01 1.766680000000000916e+00 1.990720000000000312e+01 -1.443929999999999936e+01 -1.212800000000000011e+01 2.818400000000000105e+01 1.072940000000000005e+01 1.915919999999999845e+01 -1.402039999999978898e-16 -7.951389999999997254e-16 -1.000000000000000000e+01 -1.382980000000000081e-14 -5.168400000000000916e-15 -1.000000000000000000e+01 -3.180549999999999587e-15 6.162319999999999522e-15 1.987849999999995412e-16 1.998179999999999978e+01 8.718970000000000331e-01 2.396399999999999864e+00 2.400000000000000000e+01 -1.283479999999999943e-14 -2.131970000000000444e-14 2.000000000000000000e+01 -2.287509999999999812e-13 -1.300599999999999931e-12 -3.180549999999999587e-15 6.162319999999999522e-15 1.987849999999995412e-16 2.000000000000000000e+01 3.180550000000001165e-15 2.782990000000001466e-15 2.400000000000000000e+01 -1.253429999999999859e-14 -1.033680000000000183e-14 2.000000000000000000e+01 -6.649350000000000339e-14 -3.597999999999999916e-13 -3.180549999999999587e-15 6.162319999999999522e-15 1.987849999999995412e-16 1.997479999999999833e+01 -1.025649999999999951e+00 -2.819380000000000219e+00 2.400000000000000000e+01 5.093859999999999512e-15 -1.272220000000000466e-14 2.000000000000000000e+01 -4.671439999999999404e-14 -2.250239999999999962e-13 -3.180549999999999587e-15 6.162319999999999522e-15 1.987849999999995412e-16 1.978150000000000119e+01 -3.009479999999999933e+00 -8.305149999999999366e+00 2.400000000000000000e+01 2.534500000000000853e-15 -2.862500000000000425e-14 2.000000000000000000e+01 -1.471010000000000211e-14 -6.520140000000001538e-14 1.758739999999999526e+01 -1.636929999999999907e+01 -3.684060000000000912e+01 -5.978900000000000148e+01 3.144460000000000477e+01 -5.577669999999999817e+01 2.781649999999999778e+01 -4.842790000000000106e+01 2.298600000000000065e+01 -1.508230000000000182e+01 -1.100990000000000002e+01 7.558080000000000354e+00 -2.818400000000000105e+01 1.072940000000000005e+01 -1.915919999999999845e+01 9.969269999999999585e-15 -1.590280000000000274e-15 1.000000000000000000e+01 -1.291850000000000038e-14 0.000000000000000000e+00 1.000000000000000000e+01 0.000000000000000000e+00 3.180549999999999587e-15 3.975690000000000513e-16 -1.998179999999999978e+01 8.718970000000000331e-01 -2.396399999999999864e+00 -2.400000000000000000e+01 0.000000000000000000e+00 3.180549999999999982e-15 -2.000000000000000000e+01 0.000000000000000000e+00 -3.180549999999999193e-15 0.000000000000000000e+00 3.180549999999999587e-15 3.975690000000000513e-16 -2.000000000000000000e+01 -3.180549999999999982e-15 8.746530000000000547e-15 -2.400000000000000000e+01 2.385419999999999228e-15 1.590279999999999485e-15 -2.000000000000000000e+01 -1.590279999999999682e-15 -6.361109999999999741e-15 0.000000000000000000e+00 3.180549999999999587e-15 3.975690000000000513e-16 -1.997479999999999833e+01 -1.025649999999999951e+00 2.819380000000000219e+00 -2.400000000000000000e+01 5.565970000000000787e-15 3.180549999999999193e-15 -2.000000000000000000e+01 1.192709999999999219e-15 -9.541660000000000512e-15 0.000000000000000000e+00 3.180549999999999587e-15 3.975690000000000513e-16 -1.978150000000000119e+01 -3.009479999999999933e+00 8.305149999999999366e+00 -2.400000000000000000e+01 4.770830000000000256e-15 -6.361110000000001319e-15 -2.000000000000000000e+01 -5.963539999999988037e-16 -1.113189999999999931e-14
3.513965999999999440e+03 8.944359999999998934e+01 2.030519999999999641e+02 2.450859999999999772e+01 1.039109999999999978e+01 -7.558409999999999229e+01 -8.869089999999998142e+00 -5.135499999999999687e+01 -5.175139999999999851e+00 -3.543019999999999836e+00 2.203500000000000014e+01 -1.477089999999999925e+01 1.023690000000000033e+01 6.402679999999999261e+00 2.971569999999999823e+01 1.342290000000000028e+01 -4.207359999999999900e+01 6.439539999999999154e-01 -1.650760000000000005e+00 3.501419999999999533e+01 6.382509999999999017e+00 -7.947969999999999757e+00 -1.664630000000000010e+01 -1.230519999999999925e+01 -5.435520000000000351e+00 1.547259999999999991e+01 1.159050000000000225e+01 -1.061699999999999866e+00 3.818369999999999820e+00 2.748260000000000147e+00 -1.786460000000000159e+00 6.040570000000000661e+00 4.543140000000001066e+00 -4.049780000000001157e-01 -3.714700000000000224e-01 -1.223129999999999773e-01 -4.054960000000000786e-01 -3.723469999999999835e-01 -1.203310000000001878e-01 -7.460419999999999163e+00 -6.868219999999999104e+00 -2.081850000000000200e+00 1.274759999999999893e+00 -1.344940000000000069e+01 1.945530000000000115e+01 8.550979999999999848e+01 -5.187430000000006203e-01 4.861100000000000421e+01 1.307339999999999947e+01 -5.125000000000000000e+01 2.773709999999997677e+00 1.996580000000000155e+01 -1.444650000000000212e+01 -1.190060000000000073e+01 2.818400000000000105e+01 1.072940000000000005e+01 1.915919999999999845e+01 -1.614809999999999905e-15 0.000000000000000000e+00 -1.000000000000000000e+01 -1.270819999999999773e-14 1.192709999999999614e-15 -1.000000000000000000e+01 3.180549999999999982e-15 1.192710000000000008e-15 -6.261720000000001098e-15 1.998179999999999978e+01 8.718970000000000331e-01 2.396399999999999864e+00 2.400000000000000000e+01 -1.408270000000000143e-14 -3.180550000000000140e-14 2.000000000000000000e+01 -1.555490000000000070e-13 -8.641170000000001438e-13 3.180549999999999982e-15 1.192710000000000008e-15 -6.261720000000001098e-15 2.000000000000000000e+01 -5.764759999999999428e-15 -1.371610000000000056e-14 2.400000000000000000e+01 -1.138659999999999771e-14 -3.279949999999999822e-14 2.000000000000000000e+01 -3.140800000000002127e-14 -2.096180000000001273e-13 3.180549999999999982e-15 1.192710000000000008e-15 -6.261720000000001098e-15 1.997479999999999833e+01 -1.025649999999999951e+00 -2.819380000000000219e+00 2.400000000000000000e+01 1.137110000000000051e-14 -2.027600000000000998e-14 2.000000000000000000e+01 -3.955809999999999252e-14 -1.983870000000000361e-13 3.180549999999999982e-15 1.192710000000000008e-15 -6.261720000000001098e-15 1.978150000000000119e+01 -3.009479999999999933e+00 -8.305149999999999366e+00 2.400000000000000000e+01 -3.835920000000000216e-15 -3.180550000000000771e-14 2.000000000000000000e+01 -6.361109999999999741e-15 -4.929860000000001422e-14 1.761209999999999809e+01 -1.635640000000000072e+01 -3.695239999999999725e+01 -5.989260000000000872e+01 3.151999999999999957e+01 -5.555680000000000973e+01 2.750710000000000122e+01 -4.781289999999999907e+01 2.261539999999999750e+01 -1.511209999999999987e+01 -1.092520000000000024e+01 7.571060000000001011e+00 -2.818400000000000105e+01 1.072940000000000005e+01 -1.915919999999999845e+01 3.790440000000000116e-15 -3.180550000000000376e-15 1.000000000000000000e+01 -3.229620000000000600e-15 0.000000000000000000e+00 1.000000000000000000e+01 -3.180549999999999982e-15 0.000000000000000000e+00 -3.975689999999998541e-16 -1.998179999999999978e+01 8.718970000000000331e-01 -2.396399999999999864e+00 -2.400000000000000000e+01 2.385420000000000017e-15 1.590280000000001852e-15 -2.000000000000000000e+01 1.987850000000000145e-15 6.361109999999998952e-15 -3.180549999999999982e-15 0.000000000000000000e+00 -3.975689999999998541e-16 -2.000000000000000000e+01 -1.590279999999999880e-15 3.975690000000001302e-15 -2.400000000000000000e+01 8.746530000000000547e-15 4.770830000000000256e-15 -2.000000000000000000e+01 -2.782989999999999493e-15 1.590279999999999485e-15 -3.180549999999999982e-15 0.000000000000000000e+00 -3.975689999999998541e-16 -1.997479999999999833e+01 -1.025649999999999951e+00 2.819380000000000219e+00 -2.400000000000000000e+01 1.590280000000000471e-15 4.770830000000000256e-15 -2.000000000000000000e+01 -2.782990000000000282e-15 6.361109999999999741e-15 -3.180549999999999982e-15 0.000000000000000000e+00 -3.975689999999998541e-16 -1.978150000000000119e+01 -3.009479999999999933e+00 8.305149999999999366e+00 -2.400000000000000000e+01 3.180549999999998404e-15 0.000000000000000000e+00 -2.000000000000000000e+01 -9.541659999999998934e-15 1.590279999999999485e-15
